<svg xmlns="http://www.w3.org/2000/svg" xmlns:xlink="http://www.w3.org/1999/xlink" width="100" zoomAndPan="magnify" viewBox="0 0 75 74.999997" height="100" preserveAspectRatio="xMidYMid meet" version="1.0"><defs><clipPath id="9e541e9d15"><path d="M 43 27.898438 L 48 27.898438 L 48 32 L 43 32 Z M 43 27.898438 " clip-rule="nonzero"/></clipPath><clipPath id="05a40c21c8"><path d="M 40 27.898438 L 44 27.898438 L 44 32 L 40 32 Z M 40 27.898438 " clip-rule="nonzero"/></clipPath><clipPath id="2df2bbd809"><path d="M 22.5 31 L 47 31 L 47 47.398438 L 22.5 47.398438 Z M 22.5 31 " clip-rule="nonzero"/></clipPath><clipPath id="b02bc4b4d3"><path d="M 22.5 30 L 48 30 L 48 47.398438 L 22.5 47.398438 Z M 22.5 30 " clip-rule="nonzero"/></clipPath><clipPath id="8cd097b6bf"><path d="M 37 28 L 52.5 28 L 52.5 42 L 37 42 Z M 37 28 " clip-rule="nonzero"/></clipPath><clipPath id="0b51c1a2dc"><path d="M 37 28 L 52.5 28 L 52.5 42 L 37 42 Z M 37 28 " clip-rule="nonzero"/></clipPath></defs><path fill="#e9eef2" d="M 302.710938 171.730469 C 302.710938 171.730469 302.710938 47.980469 178.875 47.980469 C 55.039062 47.980469 55.039062 171.730469 55.039062 171.730469 C 55.039062 171.730469 6.882812 226.730469 6.882812 322.980469 C 6.882812 405.480469 137.597656 405.480469 178.875 405.480469 C 220.152344 405.480469 350.867188 405.480469 350.867188 322.980469 C 350.867188 226.730469 302.710938 171.730469 302.710938 171.730469 Z M 302.710938 171.730469 " fill-opacity="1" fill-rule="nonzero"/><path fill="#000000" d="M 48.226562 169.183594 C 44.414062 173.972656 34.574219 187.273438 24.726562 208.355469 C 13.449219 232.507812 0.00390625 272 0.00390625 322.980469 C 0.00390625 344.085938 7.859375 361.851562 23.347656 375.785156 C 35.816406 387 53.390625 395.75 75.589844 401.800781 C 114.316406 412.355469 157.921875 412.355469 178.875 412.355469 C 199.828125 412.355469 243.433594 412.355469 282.160156 401.800781 C 304.355469 395.75 321.933594 387 334.398438 375.785156 C 349.890625 361.851562 357.746094 344.085938 357.746094 322.980469 C 357.746094 272 344.300781 232.507812 333.023438 208.355469 C 323.175781 187.273438 313.335938 173.972656 309.523438 169.183594 C 309.214844 161.859375 307.464844 139.925781 297.621094 116.089844 C 291.78125 101.949219 284.109375 89.667969 274.769531 79.359375 C 279.613281 71.5625 282.070312 63.34375 282.070312 54.855469 C 282.070312 32.109375 263.554688 13.605469 240.792969 13.605469 C 232.652344 13.605469 223.175781 15.976562 214.378906 20.097656 C 207.175781 7.988281 193.960938 -0.144531 178.875 -0.144531 C 163.789062 -0.144531 150.574219 7.988281 143.371094 20.097656 C 134.574219 15.976562 125.097656 13.605469 116.957031 13.605469 C 94.195312 13.605469 75.679688 32.109375 75.679688 54.855469 C 75.679688 63.34375 78.136719 71.5625 82.980469 79.359375 C 73.640625 89.667969 65.96875 101.949219 60.128906 116.089844 C 50.285156 139.925781 48.535156 161.859375 48.226562 169.183594 Z M 240.792969 27.355469 C 255.964844 27.355469 268.3125 39.691406 268.3125 54.855469 C 268.3125 59.800781 267.058594 64.691406 264.585938 69.464844 C 251.886719 58.625 236.804688 50.769531 219.625 46.140625 C 219.964844 44.367188 220.152344 42.675781 220.152344 41.105469 C 220.152344 38.320312 219.871094 35.597656 219.339844 32.960938 C 226.550781 29.449219 234.421875 27.355469 240.792969 27.355469 Z M 178.875 13.605469 C 194.050781 13.605469 206.394531 25.941406 206.394531 41.105469 C 206.394531 51.570312 191.199219 75.289062 178.875 91.742188 C 166.546875 75.289062 151.355469 51.570312 151.355469 41.105469 C 151.355469 25.941406 163.699219 13.605469 178.875 13.605469 Z M 116.957031 27.355469 C 123.328125 27.355469 131.199219 29.449219 138.410156 32.960938 C 137.878906 35.597656 137.597656 38.320312 137.597656 41.105469 C 137.597656 42.675781 137.785156 44.367188 138.125 46.140625 C 120.945312 50.769531 105.863281 58.625 93.164062 69.464844 C 90.6875 64.691406 89.4375 59.800781 89.4375 54.855469 C 89.4375 39.691406 101.785156 27.355469 116.957031 27.355469 Z M 61.921875 171.730469 C 61.921875 171.492188 62.046875 147.492188 72.847656 121.332031 C 86.371094 88.582031 109.800781 67.710938 142.523438 59.203125 C 151.699219 79.75 170.734375 103.820312 173.503906 107.28125 C 174.8125 108.90625 176.785156 109.855469 178.875 109.855469 C 180.960938 109.855469 182.9375 108.90625 184.242188 107.28125 C 187.015625 103.820312 206.046875 79.75 215.222656 59.203125 C 247.804688 67.675781 271.175781 88.410156 284.730469 120.921875 C 295.644531 147.101562 295.828125 171.496094 295.828125 171.730469 C 295.828125 173.390625 296.4375 175 297.527344 176.25 C 297.640625 176.382812 309.300781 189.914062 320.796875 214.6875 C 331.375 237.488281 343.988281 274.789062 343.988281 322.980469 C 343.988281 354.644531 321.96875 376.699219 278.539062 388.535156 C 241.589844 398.605469 199.230469 398.605469 178.875 398.605469 C 158.519531 398.605469 116.160156 398.605469 79.210938 388.535156 C 35.78125 376.699219 13.761719 354.644531 13.761719 322.980469 C 13.761719 274.789062 26.375 237.488281 36.953125 214.6875 C 48.449219 189.914062 60.109375 176.382812 60.21875 176.257812 C 61.316406 175.003906 61.921875 173.394531 61.921875 171.730469 Z M 116.957031 164.855469 C 128.339844 164.855469 137.597656 155.601562 137.597656 144.230469 C 137.597656 132.859375 128.339844 123.605469 116.957031 123.605469 C 105.578125 123.605469 96.320312 132.859375 96.320312 144.230469 C 96.320312 155.601562 105.578125 164.855469 116.957031 164.855469 Z M 116.957031 137.355469 C 120.75 137.355469 123.835938 140.441406 123.835938 144.230469 C 123.835938 148.019531 120.75 151.105469 116.957031 151.105469 C 113.164062 151.105469 110.078125 148.019531 110.078125 144.230469 C 110.078125 140.441406 113.164062 137.355469 116.957031 137.355469 Z M 240.792969 164.855469 C 252.171875 164.855469 261.429688 155.601562 261.429688 144.230469 C 261.429688 132.859375 252.171875 123.605469 240.792969 123.605469 C 229.414062 123.605469 220.152344 132.859375 220.152344 144.230469 C 220.152344 155.601562 229.414062 164.855469 240.792969 164.855469 Z M 240.792969 137.355469 C 244.585938 137.355469 247.671875 140.441406 247.671875 144.230469 C 247.671875 148.019531 244.585938 151.105469 240.792969 151.105469 C 237 151.105469 233.914062 148.019531 233.914062 144.230469 C 233.914062 140.441406 237 137.355469 240.792969 137.355469 Z M 70.101562 226.546875 C 72.371094 237.085938 77.761719 245.984375 86.1875 253.035156 C 92.070312 257.949219 99.347656 261.992188 108.117188 265.214844 C 99.628906 279.390625 89.4375 300.980469 89.4375 322.980469 C 89.4375 339.238281 93.898438 354.128906 101.996094 364.917969 C 111.785156 377.960938 126.472656 384.855469 144.476562 384.855469 C 156.824219 384.855469 165.175781 373.714844 169.296875 351.75 C 171.964844 337.535156 171.996094 323.570312 171.996094 322.980469 L 171.996094 301.34375 C 174.261719 301.992188 176.554688 302.355469 178.875 302.355469 C 181.195312 302.355469 183.488281 301.992188 185.753906 301.34375 L 185.753906 322.980469 C 185.753906 323.570312 185.785156 337.535156 188.453125 351.75 C 192.574219 373.714844 200.925781 384.855469 213.273438 384.855469 C 231.277344 384.855469 245.964844 377.960938 255.753906 364.917969 C 263.851562 354.128906 268.3125 339.238281 268.3125 322.980469 C 268.3125 300.984375 258.121094 279.390625 249.632812 265.21875 C 258.402344 261.996094 265.679688 257.953125 271.5625 253.035156 C 279.988281 245.984375 285.378906 237.085938 287.648438 226.546875 C 301.167969 219.816406 302.710938 210.125 302.710938 206.105469 C 302.710938 189.171875 277.71875 183.808594 258.921875 181.246094 C 245.289062 179.386719 231.828125 178.835938 224.914062 178.675781 C 220.058594 166.957031 205.1875 137.355469 178.875 137.355469 C 152.5625 137.355469 137.691406 166.957031 132.835938 178.675781 C 125.917969 178.835938 112.460938 179.386719 98.828125 181.246094 C 80.03125 183.808594 55.039062 189.171875 55.039062 206.105469 C 55.039062 210.125 56.582031 219.816406 70.101562 226.546875 Z M 86.183594 231.644531 C 92.519531 232.839844 100.125 233.566406 109.273438 233.605469 C 112.464844 235.675781 119.839844 246.339844 125.277344 254.207031 C 125.757812 254.898438 126.242188 255.601562 126.730469 256.304688 C 100.636719 250.382812 90.410156 240.035156 86.183594 231.644531 Z M 158.234375 322.980469 C 158.234375 323.113281 158.207031 336.242188 155.773438 349.214844 C 153.242188 362.71875 148.910156 371.105469 144.476562 371.105469 C 114.042969 371.105469 103.199219 346.246094 103.199219 322.980469 C 103.199219 302.542969 113.847656 281.839844 121.761719 269.277344 C 126.859375 270.496094 132.347656 271.511719 138.234375 272.332031 C 144.492188 280.558594 151.191406 288.285156 158.234375 293.84375 Z M 254.550781 322.980469 C 254.550781 346.246094 243.707031 371.105469 213.273438 371.105469 C 205.1875 371.105469 199.53125 345.742188 199.515625 322.980469 L 199.515625 293.84375 C 206.558594 288.285156 213.257812 280.558594 219.515625 272.335938 C 225.402344 271.511719 230.890625 270.496094 235.988281 269.277344 C 243.902344 281.84375 254.550781 302.546875 254.550781 322.980469 Z M 231.019531 256.304688 C 231.507812 255.601562 231.988281 254.898438 232.46875 254.207031 C 237.910156 246.34375 245.285156 235.675781 248.476562 233.605469 C 257.621094 233.566406 265.230469 232.839844 271.5625 231.644531 C 267.339844 240.035156 257.113281 250.386719 231.019531 256.304688 Z M 100.574219 194.886719 C 118.816406 192.390625 137.410156 192.355469 137.597656 192.355469 C 140.558594 192.355469 143.1875 190.460938 144.125 187.65625 C 144.246094 187.289062 156.929688 151.105469 178.875 151.105469 C 197.300781 151.105469 210.210938 177.496094 213.628906 187.664062 C 214.566406 190.464844 217.195312 192.355469 220.152344 192.355469 C 220.339844 192.355469 238.933594 192.390625 257.175781 194.886719 C 283.113281 198.433594 288.949219 204.324219 288.949219 206.105469 C 288.949219 210.863281 280.324219 219.855469 247.671875 219.855469 C 239.847656 219.855469 233.542969 228.46875 221.152344 246.390625 C 209.523438 263.199219 191.953125 288.605469 178.875 288.605469 C 165.796875 288.605469 148.226562 263.199219 136.597656 246.390625 C 124.207031 228.46875 117.902344 219.855469 110.078125 219.855469 C 77.425781 219.855469 68.800781 210.863281 68.800781 206.105469 C 68.800781 204.324219 74.636719 198.433594 100.574219 194.886719 Z M 100.574219 194.886719 " fill-opacity="1" fill-rule="nonzero"/><path fill="#d38d5f" d="M 45.425781 28.113281 C 45.605469 28.082031 45.765625 28.121094 45.914062 28.226562 C 46.058594 28.335938 46.148438 28.480469 46.175781 28.660156 L 46.269531 29.242188 C 46.300781 29.421875 46.261719 29.585938 46.15625 29.734375 C 46.050781 29.882812 45.910156 29.972656 45.734375 30.003906 C 45.554688 30.03125 45.394531 29.992188 45.246094 29.886719 C 45.101562 29.78125 45.011719 29.636719 44.984375 29.457031 L 44.890625 28.875 C 44.859375 28.695312 44.898438 28.53125 45.003906 28.378906 C 45.109375 28.230469 45.25 28.144531 45.425781 28.113281 Z M 45.425781 28.113281 " fill-opacity="1" fill-rule="nonzero"/><g clip-path="url(#9e541e9d15)"><path stroke-linecap="round" transform="matrix(0.0582601, -0.00974386, 0.00959162, 0.0591848, 82.066658, 21.543154)" fill="none" stroke-linejoin="miter" d="M -630.116539 7.271411 C -627.029063 7.251709 -624.458411 8.334936 -622.263443 10.478327 C -620.144334 12.675231 -619.034347 15.300006 -619.06404 18.331158 L -619.073653 28.163707 C -619.038067 31.205607 -620.135188 33.79702 -622.299738 35.948694 C -624.464288 38.100368 -627.057661 39.19143 -630.079857 39.221879 C -633.156753 39.177322 -635.727406 38.094095 -637.922373 35.950703 C -640.052061 33.818059 -641.162049 31.193284 -641.132356 28.162132 L -641.122743 18.329582 C -641.158329 15.287683 -640.061208 12.69627 -637.886079 10.480336 C -635.721529 8.328662 -633.138735 7.30186 -630.116539 7.271411 Z M -630.116539 7.271411 " stroke="#000000" stroke-width="3" stroke-opacity="1" stroke-miterlimit="4"/></g><path fill="#d38d5f" d="M 41.992188 28.554688 C 42.171875 28.523438 42.332031 28.5625 42.480469 28.671875 C 42.625 28.777344 42.714844 28.921875 42.742188 29.101562 L 42.835938 29.683594 C 42.867188 29.863281 42.828125 30.027344 42.722656 30.175781 C 42.617188 30.324219 42.476562 30.414062 42.300781 30.445312 C 42.121094 30.472656 41.960938 30.433594 41.8125 30.328125 C 41.667969 30.222656 41.578125 30.078125 41.550781 29.898438 L 41.457031 29.316406 C 41.425781 29.136719 41.464844 28.972656 41.570312 28.824219 C 41.675781 28.675781 41.816406 28.585938 41.992188 28.554688 Z M 41.992188 28.554688 " fill-opacity="1" fill-rule="nonzero"/><g clip-path="url(#05a40c21c8)"><path stroke-linecap="round" transform="matrix(0.0582601, -0.00974386, 0.00959162, 0.0591848, 82.066658, 21.543154)" fill="none" stroke-linejoin="miter" d="M -688.692376 5.085905 C -685.6049 5.066203 -683.034248 6.14943 -680.84986 8.35708 C -678.720171 10.489724 -677.610184 13.1145 -677.639877 16.145652 L -677.64949 25.978201 C -677.613903 29.020101 -678.711025 31.611514 -680.875575 33.763188 C -683.040124 35.914862 -685.633498 37.005924 -688.655694 37.036373 C -691.73259 36.991816 -694.303243 35.908588 -696.49821 33.765197 C -698.627898 31.632553 -699.737885 29.007778 -699.708193 25.976626 L -699.69858 16.144076 C -699.734166 13.102177 -698.637045 10.510763 -696.472495 8.359089 C -694.307945 6.207415 -691.714572 5.116354 -688.692376 5.085905 Z M -688.692376 5.085905 " stroke="#000000" stroke-width="3" stroke-opacity="1" stroke-miterlimit="4"/></g><g clip-path="url(#2df2bbd809)"><path fill="#ffffff" d="M 23.339844 31.972656 C 22.945312 31.980469 22.613281 32.140625 22.613281 32.140625 C 22.613281 32.140625 22.652344 33.226562 23.222656 33.519531 C 23.691406 33.757812 24.210938 33.707031 24.511719 33.421875 C 25.539062 34.6875 26.714844 35.347656 27.933594 35.824219 L 27.933594 41.011719 C 27.933594 42.195312 28.664062 43.199219 29.695312 43.585938 C 29.59375 43.792969 29.539062 44.035156 29.539062 44.296875 L 29.539062 45.941406 C 29.539062 46.703125 30.019531 47.3125 30.621094 47.3125 C 31.222656 47.3125 31.703125 46.703125 31.703125 45.941406 L 31.703125 44.296875 C 31.703125 44.105469 31.671875 43.921875 31.617188 43.753906 L 32.445312 43.753906 C 32.390625 43.921875 32.359375 44.105469 32.359375 44.296875 L 32.359375 45.941406 C 32.359375 46.703125 32.84375 47.3125 33.441406 47.3125 C 34.042969 47.3125 34.527344 46.703125 34.527344 45.941406 L 34.527344 44.296875 C 34.527344 44.105469 34.496094 43.921875 34.4375 43.753906 L 39.972656 43.753906 C 39.914062 43.921875 39.882812 44.105469 39.882812 44.296875 L 39.882812 45.941406 C 39.882812 46.703125 40.367188 47.3125 40.96875 47.3125 C 41.566406 47.3125 42.050781 46.703125 42.050781 45.941406 L 42.050781 44.296875 C 42.050781 44.105469 42.019531 43.921875 41.960938 43.753906 L 42.839844 43.753906 C 42.878906 43.972656 42.964844 44.195312 43.109375 44.398438 L 44.039062 45.742188 C 44.472656 46.363281 45.214844 46.582031 45.703125 46.230469 C 46.195312 45.878906 46.242188 45.097656 45.8125 44.476562 L 44.878906 43.132812 C 44.871094 43.121094 44.863281 43.109375 44.859375 43.101562 C 45.4375 42.597656 45.804688 41.851562 45.804688 41.011719 L 45.804688 35.714844 C 45.804688 34.195312 44.601562 32.972656 43.105469 32.972656 L 30.632812 32.972656 C 29.460938 32.972656 28.464844 33.722656 28.09375 34.78125 C 27.230469 34.628906 26.050781 33.980469 24.660156 33.234375 C 24.667969 33.222656 24.671875 33.210938 24.679688 33.199219 C 24.910156 32.730469 24.457031 32.386719 23.886719 32.09375 C 23.710938 32.003906 23.519531 31.972656 23.339844 31.972656 Z M 23.339844 31.972656 " fill-opacity="1" fill-rule="nonzero"/></g><g clip-path="url(#b02bc4b4d3)"><path stroke-linecap="round" transform="matrix(0.0590443, 0, 0, 0.0599815, 82.066658, 21.543154)" fill="none" stroke-linejoin="miter" d="M -994.622465 173.878537 C -1001.304415 174.008786 -1006.927839 176.678878 -1006.927839 176.678878 C -1006.927839 176.678878 -1006.266259 194.783407 -996.607203 199.667722 C -988.668252 203.640299 -979.869248 202.793684 -974.775088 198.039617 C -957.375555 219.139859 -937.46202 230.14585 -916.820749 238.091003 L -916.820749 324.575946 C -916.820749 344.30858 -904.449217 361.0455 -886.983526 367.492796 C -888.703632 370.944379 -889.629843 374.98208 -889.629843 379.345402 L -889.629843 406.762692 C -889.629843 419.461911 -881.492418 429.621287 -871.304098 429.621287 C -861.115778 429.621287 -852.978354 419.461911 -852.978354 406.762692 L -852.978354 379.345402 C -852.978354 376.154316 -853.507617 373.093478 -854.433828 370.293137 L -840.408349 370.293137 C -841.33456 373.093478 -841.863823 376.154316 -841.863823 379.345402 L -841.863823 406.762692 C -841.863823 419.461911 -833.660241 429.621287 -823.538078 429.621287 C -813.349758 429.621287 -805.146176 419.461911 -805.146176 406.762692 L -805.146176 379.345402 C -805.146176 376.154316 -805.675439 373.093478 -806.667808 370.293137 L -712.922033 370.293137 C -713.914401 373.093478 -714.443665 376.154316 -714.443665 379.345402 L -714.443665 406.762692 C -714.443665 419.461911 -706.240083 429.621287 -696.051762 429.621287 C -685.9296 429.621287 -677.726018 419.461911 -677.726018 406.762692 L -677.726018 379.345402 C -677.726018 376.154316 -678.255281 373.093478 -679.24765 370.293137 L -664.362118 370.293137 C -663.700539 373.940093 -662.245064 377.652172 -659.797221 381.038631 L -644.051636 403.441357 C -636.708106 413.796106 -624.138101 417.443061 -615.868361 411.581883 C -607.532463 405.720704 -606.738568 392.695863 -614.015939 382.341115 L -629.827682 359.938389 C -629.959998 359.743016 -630.092314 359.547644 -630.158472 359.417395 C -620.3671 351.016373 -614.148255 338.57765 -614.148255 324.575946 L -614.148255 236.267525 C -614.148255 210.93421 -634.524895 190.550334 -659.863379 190.550334 L -871.105624 190.550334 C -890.953001 190.550334 -907.823271 203.054181 -914.108274 220.70284 C -928.729175 218.162996 -948.708867 207.352378 -972.261087 194.913655 C -972.128772 194.718283 -972.062614 194.52291 -971.930298 194.327538 C -968.02698 186.512633 -975.701299 180.781703 -985.360356 175.897388 C -988.337462 174.399531 -991.579201 173.878537 -994.622465 173.878537 Z M -994.622465 173.878537 " stroke="#000000" stroke-width="3" stroke-opacity="1" stroke-miterlimit="4"/></g><path fill="#ffffff" d="M 42.292969 29.9375 C 41.21875 30.117188 40.402344 30.914062 40.132812 31.910156 C 39.992188 31.902344 39.851562 31.914062 39.714844 31.9375 C 39.492188 31.972656 39.285156 32.042969 39.09375 32.144531 C 38.902344 32.25 38.738281 32.375 38.601562 32.53125 C 38.464844 32.683594 38.371094 32.851562 38.3125 33.03125 C 38.253906 33.210938 38.242188 33.390625 38.269531 33.570312 C 38.300781 33.746094 38.371094 33.914062 38.480469 34.066406 C 38.59375 34.214844 38.738281 34.34375 38.914062 34.441406 C 39.089844 34.542969 39.285156 34.609375 39.5 34.644531 C 39.714844 34.679688 39.933594 34.679688 40.15625 34.640625 C 40.210938 34.628906 40.265625 34.617188 40.320312 34.605469 L 40.957031 38.5 C 41.203125 40 42.585938 41.003906 44.0625 40.757812 L 47.890625 40.113281 C 49.363281 39.863281 50.355469 38.457031 50.109375 36.957031 L 49.472656 33.0625 C 49.53125 33.058594 49.585938 33.050781 49.640625 33.042969 C 49.863281 33.003906 50.070312 32.933594 50.261719 32.832031 C 50.453125 32.726562 50.617188 32.601562 50.753906 32.445312 C 50.886719 32.292969 50.984375 32.128906 51.042969 31.949219 C 51.101562 31.765625 51.113281 31.585938 51.085938 31.410156 C 51.054688 31.230469 50.984375 31.0625 50.875 30.914062 C 50.761719 30.761719 50.617188 30.632812 50.441406 30.535156 C 50.265625 30.433594 50.066406 30.367188 49.851562 30.332031 C 49.636719 30.296875 49.421875 30.300781 49.199219 30.335938 C 49.058594 30.359375 48.925781 30.398438 48.792969 30.449219 C 48.21875 29.59375 47.195312 29.109375 46.121094 29.292969 Z M 42.292969 29.9375 " fill-opacity="1" fill-rule="nonzero"/><g clip-path="url(#8cd097b6bf)"><path stroke-linecap="round" transform="matrix(0.0582478, -0.00981926, 0.00966584, 0.0591723, 64.172399, 21.501629)" fill="none" stroke-linejoin="miter" d="M -388.583956 78.081445 C -407.022357 78.058394 -422.837702 88.900958 -430.059607 104.536301 C -432.38784 104.017916 -434.769378 103.82076 -437.117634 103.827171 C -440.933713 103.788051 -444.584681 104.370463 -448.059876 105.510162 C -451.545732 106.714106 -454.628036 108.315091 -457.338771 110.505854 C -460.038845 112.632371 -462.063644 115.135005 -463.533038 117.927849 C -465.002432 120.720693 -465.688641 123.643501 -465.722195 126.674613 C -465.679824 129.65231 -464.963475 132.609819 -463.551828 135.418649 C -462.064255 138.174064 -460.001252 140.694894 -457.330837 142.788402 C -454.671083 144.946155 -451.589052 146.579849 -448.095404 147.75373 C -444.601757 148.927611 -440.946894 149.534112 -437.120154 149.508986 C -436.174455 149.467874 -435.228755 149.426763 -434.283056 149.385651 L -434.273953 215.203905 C -434.256111 240.556544 -413.892069 260.901624 -388.55009 260.948028 L -322.830896 260.961257 C -297.543522 260.932585 -277.128095 240.555067 -277.145937 215.202428 L -277.155039 149.384174 C -276.165397 149.482384 -275.230359 149.505518 -274.295321 149.528651 C -270.468581 149.503526 -266.817613 148.921114 -263.342418 147.781415 C -259.856562 146.577471 -256.774258 144.976486 -254.063523 142.785723 C -251.428714 140.648376 -249.349311 138.220818 -247.879917 135.427974 C -246.399862 132.570884 -245.713653 129.648076 -245.69076 126.68121 C -245.722471 123.639267 -246.438819 120.681758 -247.861127 117.937173 C -249.338039 115.117513 -251.401042 112.596683 -254.071457 110.503175 C -256.731211 108.345422 -259.878508 106.700897 -263.372155 105.527016 C -266.865803 104.353135 -270.466061 103.821711 -274.28214 103.782591 C -276.695662 103.778171 -279.021298 104.052395 -281.378917 104.519356 C -288.638142 88.857497 -304.415699 78.053481 -322.864761 78.094675 Z M -388.583956 78.081445 " stroke="#000000" stroke-width="3" stroke-opacity="1" stroke-miterlimit="4"/></g><path fill="#000000" d="M 42.292969 29.9375 C 41.21875 30.117188 40.402344 30.914062 40.132812 31.910156 C 39.992188 31.902344 39.851562 31.914062 39.714844 31.9375 C 39.492188 31.972656 39.285156 32.042969 39.09375 32.144531 C 38.902344 32.25 38.738281 32.375 38.601562 32.53125 C 38.464844 32.683594 38.371094 32.851562 38.3125 33.03125 C 38.253906 33.210938 38.242188 33.390625 38.269531 33.570312 C 38.300781 33.746094 38.371094 33.914062 38.480469 34.066406 C 38.59375 34.214844 38.738281 34.34375 38.914062 34.441406 C 39.089844 34.542969 39.285156 34.609375 39.5 34.644531 C 39.714844 34.679688 39.933594 34.679688 40.15625 34.640625 C 40.210938 34.628906 40.265625 34.617188 40.320312 34.605469 L 40.957031 38.5 C 41.011719 38.835938 41.121094 39.144531 41.277344 39.417969 C 41.476562 39.429688 41.675781 39.417969 41.871094 39.390625 C 42.140625 39.34375 42.398438 39.261719 42.648438 39.140625 C 42.898438 39.019531 43.136719 38.867188 43.359375 38.675781 C 43.582031 38.484375 43.785156 38.261719 43.972656 38.011719 C 44.160156 37.757812 44.328125 37.476562 44.472656 37.167969 C 44.617188 36.863281 44.734375 36.535156 44.832031 36.1875 C 44.929688 35.839844 44.996094 35.476562 45.042969 35.101562 C 45.085938 34.726562 45.101562 34.34375 45.09375 33.953125 C 45.082031 33.5625 45.046875 33.171875 44.980469 32.785156 C 44.792969 31.621094 44.398438 30.585938 43.804688 29.683594 Z M 42.292969 29.9375 " fill-opacity="1" fill-rule="evenodd"/><path fill="#000000" d="M 46.0625 29.300781 C 47.136719 29.121094 48.160156 29.605469 48.734375 30.460938 C 48.863281 30.410156 49 30.371094 49.140625 30.347656 C 49.359375 30.308594 49.578125 30.308594 49.792969 30.34375 C 50.007812 30.375 50.203125 30.445312 50.378906 30.542969 C 50.558594 30.644531 50.703125 30.769531 50.8125 30.921875 C 50.925781 31.074219 50.996094 31.238281 51.023438 31.417969 C 51.054688 31.597656 51.039062 31.777344 50.980469 31.957031 C 50.925781 32.136719 50.828125 32.304688 50.691406 32.457031 C 50.558594 32.609375 50.394531 32.738281 50.199219 32.839844 C 50.007812 32.945312 49.800781 33.015625 49.582031 33.050781 C 49.523438 33.058594 49.46875 33.066406 49.414062 33.070312 L 50.050781 36.96875 C 50.105469 37.300781 50.097656 37.628906 50.039062 37.941406 C 49.851562 38.019531 49.660156 38.074219 49.464844 38.109375 C 49.199219 38.152344 48.925781 38.160156 48.652344 38.128906 C 48.378906 38.097656 48.105469 38.027344 47.832031 37.921875 C 47.5625 37.8125 47.296875 37.671875 47.039062 37.492188 C 46.78125 37.316406 46.535156 37.105469 46.300781 36.863281 C 46.066406 36.617188 45.847656 36.347656 45.644531 36.050781 C 45.445312 35.753906 45.261719 35.433594 45.101562 35.089844 C 44.941406 34.75 44.804688 34.390625 44.6875 34.019531 C 44.574219 33.648438 44.484375 33.265625 44.421875 32.878906 C 44.230469 31.714844 44.277344 30.605469 44.550781 29.554688 Z M 46.0625 29.300781 " fill-opacity="1" fill-rule="evenodd"/><path fill="#ffccaa" d="M 41.652344 37.515625 C 41.359375 37.5625 41.085938 37.660156 40.839844 37.789062 L 40.957031 38.5 C 41.203125 40 42.585938 41.003906 44.0625 40.757812 L 47.890625 40.113281 C 49.363281 39.863281 50.355469 38.457031 50.109375 36.957031 L 49.972656 36.113281 L 41.648438 37.515625 Z M 41.652344 37.515625 " fill-opacity="1" fill-rule="nonzero"/><path stroke-linecap="butt" transform="matrix(0.0582478, -0.00981926, 0.00966584, 0.0591723, 64.172399, 21.501629)" fill-opacity="1" fill="#ffffff" fill-rule="nonzero" stroke-linejoin="miter" d="M -368.696444 142.115252 C -368.684757 145.68199 -369.336385 149.20467 -370.760538 152.53314 C -372.119424 155.87244 -374.088321 158.846454 -376.656565 161.390936 C -379.22481 163.935418 -382.175285 165.954368 -385.486667 167.319295 C -388.863314 168.673391 -392.339808 169.416786 -395.960091 169.410157 C -399.580373 169.403528 -403.083383 168.690197 -406.414517 167.345239 C -409.734989 165.936037 -412.698449 163.991945 -415.283575 161.384472 C -417.814096 158.852075 -419.802471 155.881526 -421.194094 152.5479 C -422.585717 149.214274 -423.282042 145.73197 -423.283068 142.100986 C -423.284094 138.470003 -422.5672 134.958153 -421.208313 131.618853 C -419.784161 128.290383 -417.815265 125.316369 -415.24702 122.771887 C -412.744041 120.216574 -409.738962 118.2727 -406.416919 116.843528 C -403.105536 115.478601 -399.574439 114.810283 -395.954156 114.816912 C -392.323212 114.759296 -388.885468 115.461796 -385.49973 116.881829 C -382.168597 118.226787 -379.215798 120.235124 -376.685276 122.767521 C -374.089489 125.310748 -372.101115 128.281297 -370.709491 131.614923 C -369.328529 135.012795 -368.69747 138.484269 -368.696444 142.115252 Z M -368.696444 142.115252 " stroke="#000000" stroke-width="1" stroke-opacity="1" stroke-miterlimit="4"/><path stroke-linecap="butt" transform="matrix(0.0582478, -0.00981926, 0.00966584, 0.0591723, 64.172399, 21.501629)" fill-opacity="1" fill="#ffffff" fill-rule="nonzero" stroke-linejoin="miter" d="M -291.301233 142.085597 C -291.300208 145.71658 -292.00644 149.164184 -293.375988 152.56773 C -294.734875 155.90703 -296.69311 158.816798 -299.272016 161.425526 C -301.84026 163.970008 -304.780074 165.924713 -308.167383 167.343055 C -311.478765 168.707981 -314.944597 169.38713 -318.56488 169.380501 C -322.185163 169.373872 -325.698834 168.724786 -329.019306 167.315584 C -332.415704 165.959796 -335.368503 163.951458 -337.899025 161.419062 C -340.484151 158.811589 -342.417921 155.916116 -343.798883 152.518244 C -345.190507 149.184618 -345.886831 145.702314 -345.887857 142.07133 C -345.888883 138.440347 -345.247916 134.981912 -343.823764 131.653443 C -342.464877 128.314142 -340.495981 125.340128 -337.927736 122.795646 C -335.34883 120.186919 -332.409017 118.232214 -329.032369 116.878118 C -325.710326 115.448946 -322.244493 114.769797 -318.624211 114.776426 C -315.003928 114.783055 -311.500918 115.496386 -308.169785 116.841343 C -304.784047 118.261376 -301.820587 120.205469 -299.300727 122.802111 C -296.70494 125.345338 -294.78183 128.305057 -293.390207 131.638683 C -291.998584 134.972308 -291.302259 138.454613 -291.301233 142.085597 Z M -291.301233 142.085597 " stroke="#000000" stroke-width="1" stroke-opacity="1" stroke-miterlimit="4"/><path stroke-linecap="butt" transform="matrix(0.0582478, -0.00981926, 0.00966584, 0.0591723, 64.172399, 21.501629)" fill-opacity="1" fill="#000000" fill-rule="nonzero" stroke-linejoin="miter" d="M -377.777219 151.170723 C -377.773596 155.594315 -379.337641 159.361674 -382.40409 162.483631 C -385.535804 165.594757 -389.281423 167.151684 -393.706213 167.143581 C -398.065738 167.14631 -401.832407 165.597049 -404.930293 162.442383 C -408.038841 159.351963 -409.627559 155.589542 -409.631182 151.16595 C -409.645466 146.806604 -408.081421 143.039245 -404.949707 139.928119 C -401.817993 136.816993 -398.072373 135.260066 -393.712849 135.257338 C -389.288059 135.26544 -385.52139 136.814701 -382.412842 139.905121 C -379.314956 143.059786 -377.791503 146.811377 -377.777219 151.170723 Z M -377.777219 151.170723 " stroke="#000000" stroke-width="1" stroke-opacity="1" stroke-miterlimit="4"/><path stroke-linecap="butt" transform="matrix(0.0582478, -0.00981926, 0.00966584, 0.0591723, 64.172399, 21.501629)" fill-opacity="1" fill="#000000" fill-rule="nonzero" stroke-linejoin="miter" d="M -298.109678 151.188072 C -298.106055 155.611664 -299.65944 159.314777 -302.791154 162.425903 C -305.922868 165.537029 -309.668487 167.093956 -314.028012 167.096684 C -318.452802 167.088582 -322.21947 165.539321 -325.328018 162.448901 C -328.436566 159.358481 -329.960019 155.606891 -329.963642 151.183299 C -329.977926 146.823952 -328.41388 143.056593 -325.347431 139.934637 C -322.215717 136.823511 -318.470098 135.266584 -314.045308 135.274686 C -309.685784 135.271958 -305.919115 136.821219 -302.810567 139.911639 C -299.702019 143.002059 -298.113301 146.76448 -298.109678 151.188072 Z M -298.109678 151.188072 " stroke="#000000" stroke-width="1" stroke-opacity="1" stroke-miterlimit="4"/><path stroke-linecap="butt" transform="matrix(0.0582478, -0.00981926, 0.00966584, 0.0591723, 85.161763, 47.435141)" fill-opacity="1" fill="#000000" fill-rule="nonzero" stroke-linejoin="miter" d="M -650.845116 -252.734039 C -650.853453 -248.642505 -651.831408 -245.173977 -653.854909 -242.275039 C -655.87841 -239.376101 -658.254754 -237.988041 -661.08119 -237.928951 C -663.896966 -237.934107 -666.337004 -239.395252 -668.33604 -242.301555 C -670.335075 -245.207859 -671.303123 -248.66924 -671.360051 -252.771603 C -671.351715 -256.863137 -670.308494 -260.320834 -668.350259 -263.230603 C -666.326758 -266.129541 -663.950414 -267.517601 -661.058712 -267.565861 C -658.242937 -267.560705 -655.868164 -266.11039 -653.869128 -263.204086 C -651.870092 -260.297783 -650.83678 -256.825572 -650.845116 -252.734039 Z M -650.845116 -252.734039 " stroke="#000000" stroke-width="1" stroke-opacity="1" stroke-miterlimit="4"/><path stroke-linecap="butt" transform="matrix(0.0582478, -0.00981926, 0.00966584, 0.0591723, 85.161763, 47.435141)" fill-opacity="1" fill="#000000" fill-rule="nonzero" stroke-linejoin="miter" d="M -603.031539 -252.721463 C -603.039876 -248.62993 -604.083097 -245.172232 -606.041332 -242.262464 C -608.054171 -239.427772 -610.441176 -237.975466 -613.322217 -237.991452 C -616.148654 -237.932362 -618.523426 -239.382677 -620.522462 -242.28898 C -622.521498 -245.195284 -623.554811 -248.667495 -623.546474 -252.759028 C -623.538137 -256.850562 -622.560182 -260.31909 -620.536681 -263.218028 C -618.513181 -266.116966 -616.126176 -267.569272 -613.3104 -267.564116 C -610.494625 -267.55896 -608.054586 -266.097815 -606.055551 -263.191511 C -604.045854 -260.349453 -603.088468 -256.823827 -603.031539 -252.721463 Z M -603.031539 -252.721463 " stroke="#000000" stroke-width="1" stroke-opacity="1" stroke-miterlimit="4"/><path stroke-linecap="butt" transform="matrix(0.0590443, 0, 0, 0.0599815, 82.066658, 21.543154)" fill-opacity="1" fill="#000000" fill-rule="evenodd" stroke-linejoin="miter" d="M -871.105624 190.550334 C -876.001311 190.550334 -880.698523 191.2667 -885.131104 192.699432 C -883.278682 201.556324 -879.904628 209.827098 -875.008942 217.576878 C -870.113256 225.261534 -864.026727 231.969328 -856.683197 237.700257 C -849.339668 243.431187 -841.202244 247.794509 -832.204766 250.855347 C -823.273447 253.85106 -814.077496 255.414041 -804.550755 255.414041 C -794.82554 255.414041 -785.431115 253.85106 -776.301322 250.659974 C -767.237687 247.468888 -758.967946 242.910194 -751.558259 236.983891 C -744.148572 231.057589 -737.995885 224.089299 -733.232515 216.079022 C -728.402986 208.133869 -725.161248 199.602598 -723.573458 190.550334 Z M -871.105624 190.550334 " stroke="#000000" stroke-width="1" stroke-opacity="1" stroke-miterlimit="4"/><path stroke-linecap="butt" transform="matrix(0.0537015, 0.024933, -0.0245434, 0.0545539, 82.066658, 21.543154)" fill-opacity="1" fill="#000000" fill-rule="nonzero" stroke-linejoin="miter" d="M -603.857958 636.861523 C -603.903507 641.536565 -605.122334 646.0318 -607.688923 650.283767 C -610.16827 654.567464 -613.748663 658.351929 -618.430103 661.637161 C -623.111543 664.922392 -628.499901 667.456657 -634.535004 669.212454 C -640.630279 670.995752 -646.9842 671.894812 -653.596768 671.909633 C -660.149165 671.896955 -666.517967 671.012729 -672.643005 669.229456 C -678.70787 667.418683 -684.06569 664.926749 -688.770604 661.635191 C -693.388276 658.375363 -697.010104 654.588798 -699.548847 650.307226 C -702.027419 645.998154 -703.320652 641.576963 -703.275104 636.901921 C -703.289726 632.254379 -702.043829 627.818375 -699.504311 623.507177 C -697.024964 619.22348 -693.44457 615.439015 -688.76313 612.153784 C -684.08169 608.868552 -678.693333 606.334287 -672.598058 604.550989 C -666.562955 602.795192 -660.209033 601.896132 -653.596465 601.881311 C -646.956827 601.92572 -640.675266 602.778215 -634.550229 604.561488 C -628.485363 606.372261 -623.127544 608.864195 -618.42263 612.155754 C -613.777887 615.474812 -610.183129 619.202146 -607.644386 623.483718 C -605.165815 627.79279 -603.845511 632.273212 -603.857958 636.861523 Z M -603.857958 636.861523 " stroke="#000000" stroke-width="1" stroke-opacity="1" stroke-miterlimit="4"/><path stroke-linecap="butt" transform="matrix(0.0590443, 0, 0, 0.0599815, 82.066658, 21.543154)" fill-opacity="1" fill="#000000" fill-rule="evenodd" stroke-linejoin="miter" d="M -645.573268 363.455096 C -649.079638 363.455096 -652.321376 364.75758 -655.298482 367.297424 C -658.209431 369.902392 -660.392642 373.353975 -661.848117 377.717297 C -661.252695 378.824408 -660.591116 379.931519 -659.797221 381.038631 L -644.051636 403.441357 C -642.397688 405.785829 -640.545266 407.739555 -638.49437 409.302536 C -635.252632 407.413934 -632.672473 404.483344 -630.687735 400.510768 C -628.769156 396.538192 -627.776787 392.17487 -627.776787 387.420803 C -627.776787 384.229717 -628.239892 381.168879 -629.099945 378.23829 C -630.026156 375.307701 -631.349315 372.702733 -633.003263 370.48851 C -634.657211 368.209163 -636.57579 366.515933 -638.759002 365.278574 C -640.942213 364.041214 -643.191583 363.455096 -645.573268 363.455096 Z M -645.573268 363.455096 " stroke="#000000" stroke-width="1" stroke-opacity="1" stroke-miterlimit="4"/><path stroke-linecap="butt" transform="matrix(0.0590443, 0, 0, 0.0599815, 82.066658, 21.543154)" fill-opacity="1" fill="#000000" fill-rule="evenodd" stroke-linejoin="miter" d="M -891.085317 360.980376 C -893.20237 360.980376 -895.253266 361.371121 -897.238004 362.152612 C -894.062423 364.30171 -890.622212 366.125188 -886.983526 367.492796 C -888.637474 370.944379 -889.629843 374.98208 -889.629843 379.345402 L -889.629843 406.762692 C -889.629843 407.479058 -889.629843 408.1303 -889.563685 408.781542 C -887.049684 408.586169 -884.601841 407.804679 -882.286313 406.502195 C -880.036944 405.199711 -877.986048 403.441357 -876.265942 401.227134 C -874.545836 399.012911 -873.15652 396.473067 -872.230309 393.672727 C -871.304098 390.872386 -870.840993 387.941797 -870.840993 384.946083 C -870.840993 381.754997 -871.370256 378.69416 -872.362625 375.76357 C -873.421152 372.832981 -874.876626 370.228013 -876.795206 368.01379 C -878.713786 365.734443 -880.896997 364.041214 -883.34484 362.803854 C -885.858841 361.566494 -888.439 360.980376 -891.085317 360.980376 Z M -891.085317 360.980376 " stroke="#000000" stroke-width="1" stroke-opacity="1" stroke-miterlimit="4"/><path stroke-linecap="butt" transform="matrix(0.0590443, 0, 0, 0.0599815, 82.066658, 21.543154)" fill-opacity="1" fill="#000000" fill-rule="evenodd" stroke-linejoin="miter" d="M -805.146176 391.719 C -808.784862 391.849249 -811.828126 393.151733 -814.342127 395.691577 C -816.78997 398.166297 -818.046971 401.16201 -818.046971 404.548469 C -818.046971 407.67443 -817.054602 410.409647 -815.003706 412.754118 C -812.952811 415.163714 -810.372652 416.596446 -807.197072 417.247688 C -805.873913 414.121727 -805.146176 410.539895 -805.146176 406.762692 Z M -805.146176 391.719 " stroke="#000000" stroke-width="1" stroke-opacity="1" stroke-miterlimit="4"/><path stroke-linecap="butt" transform="matrix(0.0590443, 0, 0, 0.0599815, 82.066658, 21.543154)" fill-opacity="1" fill="#000000" fill-rule="evenodd" stroke-linejoin="miter" d="M -709.415663 388.006921 C -711.201927 388.006921 -712.855875 388.46279 -714.443665 389.309405 L -714.443665 406.762692 C -714.443665 407.023188 -714.377507 407.348809 -714.377507 407.609306 C -712.855875 408.455921 -711.201927 408.846666 -709.415663 408.846666 C -706.504714 408.846666 -704.056871 407.869803 -702.005975 405.785829 C -700.021238 403.766978 -698.962711 401.292258 -698.962711 398.426793 C -698.962711 395.561328 -700.021238 393.086609 -702.005975 391.067758 C -704.056871 389.048908 -706.504714 388.006921 -709.415663 388.006921 Z M -709.415663 388.006921 " stroke="#000000" stroke-width="1" stroke-opacity="1" stroke-miterlimit="4"/><path stroke-linecap="butt" transform="matrix(0.0590443, 0, 0, 0.0599815, 82.066658, 21.543154)" fill-opacity="1" fill="#000000" fill-rule="evenodd" stroke-linejoin="miter" d="M -694.993236 288.301764 C -703.064502 289.864745 -709.614137 293.186079 -714.708297 298.135519 C -719.736299 303.084959 -722.316458 308.68564 -722.316458 314.937564 C -722.316458 318.649643 -721.390247 322.16635 -719.471667 325.552809 C -717.619245 328.939268 -714.972928 331.869857 -711.532716 334.474825 C -708.092504 337.079793 -704.056871 339.098643 -699.558132 340.466252 C -695.059394 341.898984 -690.362181 342.550226 -685.466495 342.550226 C -676.865965 342.550226 -669.191646 340.531376 -662.443538 336.493675 C -655.69543 332.455975 -651.395165 327.246038 -649.542743 320.92899 C -670.382489 321.710481 -689.105181 308.294895 -694.993236 288.301764 Z M -694.993236 288.301764 " stroke="#000000" stroke-width="1" stroke-opacity="1" stroke-miterlimit="4"/><path fill="#ffffff" d="M 42.292969 29.9375 C 41.21875 30.121094 40.402344 30.914062 40.132812 31.910156 C 39.992188 31.90625 39.851562 31.914062 39.710938 31.9375 C 39.492188 31.972656 39.285156 32.042969 39.09375 32.148438 C 38.898438 32.25 38.734375 32.378906 38.601562 32.53125 C 38.464844 32.683594 38.367188 32.851562 38.3125 33.03125 C 38.253906 33.210938 38.238281 33.390625 38.269531 33.570312 C 38.296875 33.75 38.367188 33.914062 38.480469 34.066406 C 38.59375 34.21875 38.734375 34.34375 38.914062 34.445312 C 39.089844 34.542969 39.285156 34.613281 39.5 34.644531 C 39.714844 34.679688 39.933594 34.679688 40.15625 34.640625 C 40.210938 34.632812 40.265625 34.621094 40.320312 34.605469 L 40.957031 38.503906 C 41.199219 40 42.585938 41.007812 44.0625 40.757812 L 47.886719 40.113281 C 49.363281 39.863281 50.355469 38.457031 50.109375 36.960938 L 49.472656 33.0625 C 49.527344 33.058594 49.585938 33.050781 49.640625 33.042969 C 49.859375 33.003906 50.066406 32.933594 50.261719 32.832031 C 50.453125 32.730469 50.617188 32.601562 50.753906 32.449219 C 50.886719 32.292969 50.984375 32.128906 51.042969 31.949219 C 51.097656 31.769531 51.113281 31.589844 51.082031 31.410156 C 51.054688 31.230469 50.984375 31.066406 50.871094 30.914062 C 50.761719 30.761719 50.617188 30.636719 50.441406 30.535156 C 50.261719 30.433594 50.066406 30.367188 49.851562 30.332031 C 49.636719 30.300781 49.417969 30.300781 49.199219 30.335938 C 49.058594 30.363281 48.921875 30.398438 48.792969 30.449219 C 48.21875 29.597656 47.195312 29.113281 46.121094 29.292969 Z M 42.292969 29.9375 " fill-opacity="1" fill-rule="nonzero"/><g clip-path="url(#0b51c1a2dc)"><path stroke-linecap="round" transform="matrix(0.0590443, 0, 0, 0.0599815, 82.066658, 21.543154)" fill="none" stroke-linejoin="miter" d="M -673.624227 139.948827 C -691.817655 143.009665 -705.644661 156.229878 -710.209558 172.83655 C -712.591243 172.771426 -714.972928 172.901674 -717.354613 173.29242 C -721.059457 173.878537 -724.565827 175.050773 -727.807565 176.809127 C -731.115461 178.502356 -733.894094 180.651455 -736.143463 183.191299 C -738.458991 185.731143 -740.112939 188.531483 -741.03915 191.527197 C -742.031518 194.52291 -742.29615 197.518624 -741.766887 200.514337 C -741.303781 203.51005 -740.112939 206.245267 -738.194359 208.785111 C -736.275779 211.324955 -733.894094 213.408929 -730.85083 215.102159 C -727.873723 216.730264 -724.565827 217.902499 -720.927141 218.423493 C -717.288456 219.009611 -713.583612 219.009611 -709.81261 218.358369 C -708.886399 218.22812 -707.960188 218.032748 -707.033978 217.772251 L -696.250236 282.766207 C -692.148445 307.708777 -668.662383 324.510822 -643.654688 320.342873 L -578.886082 309.597379 C -553.878388 305.42943 -537.074276 281.984716 -541.242225 257.042146 L -552.025966 192.04819 C -551.099755 191.983066 -550.107386 191.852818 -549.181175 191.722569 C -545.476332 191.071327 -541.969962 189.899092 -538.662066 188.205862 C -535.420328 186.512633 -532.641695 184.363534 -530.326168 181.82369 C -528.076798 179.218722 -526.42285 176.483506 -525.430481 173.487792 C -524.50427 170.492079 -524.239639 167.496365 -524.768902 164.500652 C -525.232008 161.504939 -526.42285 158.769722 -528.34143 156.229878 C -530.193852 153.690034 -532.641695 151.60606 -535.618801 149.91283 C -538.662066 148.219601 -541.969962 147.112489 -545.608648 146.526372 C -549.247333 146.005378 -552.952177 146.005378 -556.657021 146.591496 C -559.038706 147.047365 -561.354233 147.633483 -563.537444 148.480098 C -573.262659 134.283021 -590.596035 126.20762 -608.789463 129.203333 Z M -673.624227 139.948827 " stroke="#000000" stroke-width="3" stroke-opacity="1" stroke-miterlimit="4"/></g><path fill="#000000" d="M 43.261719 29.773438 L 42.292969 29.9375 C 41.21875 30.117188 40.402344 30.914062 40.132812 31.910156 C 39.992188 31.90625 39.851562 31.914062 39.710938 31.9375 C 39.492188 31.972656 39.285156 32.042969 39.09375 32.148438 C 38.898438 32.25 38.734375 32.378906 38.601562 32.53125 C 38.464844 32.683594 38.367188 32.851562 38.3125 33.03125 C 38.253906 33.210938 38.238281 33.390625 38.269531 33.570312 C 38.296875 33.75 38.367188 33.914062 38.480469 34.066406 C 38.59375 34.21875 38.734375 34.34375 38.914062 34.445312 C 39.089844 34.542969 39.285156 34.613281 39.5 34.644531 C 39.714844 34.679688 39.933594 34.679688 40.15625 34.640625 C 40.210938 34.632812 40.265625 34.621094 40.320312 34.605469 L 40.957031 38.5 C 40.996094 38.746094 41.066406 38.980469 41.164062 39.195312 C 41.660156 38.992188 42.109375 38.675781 42.515625 38.25 C 42.921875 37.824219 43.257812 37.308594 43.523438 36.710938 C 43.792969 36.109375 43.976562 35.460938 44.074219 34.757812 C 44.171875 34.054688 44.183594 33.339844 44.101562 32.617188 C 43.984375 31.589844 43.707031 30.644531 43.261719 29.773438 Z M 43.261719 29.773438 " fill-opacity="1" fill-rule="evenodd"/><path fill="#000000" d="M 46.460938 29.265625 C 46.328125 29.269531 46.195312 29.28125 46.0625 29.304688 L 45.03125 29.476562 C 44.851562 30.679688 44.925781 31.929688 45.253906 33.230469 C 45.519531 34.277344 45.921875 35.226562 46.457031 36.078125 C 46.996094 36.929688 47.613281 37.59375 48.304688 38.066406 C 48.699219 38.15625 49.085938 38.171875 49.464844 38.109375 C 49.660156 38.074219 49.851562 38.019531 50.039062 37.945312 C 50.097656 37.632812 50.105469 37.300781 50.050781 36.96875 L 49.414062 33.074219 C 49.46875 33.066406 49.523438 33.0625 49.582031 33.054688 C 49.800781 33.015625 50.007812 32.945312 50.199219 32.84375 C 50.394531 32.738281 50.558594 32.613281 50.691406 32.457031 C 50.828125 32.304688 50.925781 32.136719 50.980469 31.957031 C 51.039062 31.777344 51.054688 31.597656 51.023438 31.417969 C 50.996094 31.242188 50.925781 31.074219 50.8125 30.921875 C 50.699219 30.773438 50.558594 30.644531 50.378906 30.546875 C 50.203125 30.445312 50.007812 30.378906 49.792969 30.34375 C 49.578125 30.308594 49.359375 30.308594 49.136719 30.347656 C 49 30.371094 48.863281 30.410156 48.734375 30.460938 C 48.230469 29.714844 47.382812 29.25 46.460938 29.265625 Z M 46.460938 29.265625 " fill-opacity="1" fill-rule="evenodd"/><path fill="#ffccaa" d="M 41.648438 37.515625 C 41.359375 37.566406 41.085938 37.660156 40.839844 37.789062 L 40.957031 38.5 C 41.199219 40 42.585938 41.007812 44.0625 40.757812 L 47.886719 40.113281 C 49.363281 39.863281 50.355469 38.457031 50.109375 36.957031 L 49.972656 36.113281 Z M 41.648438 37.515625 " fill-opacity="1" fill-rule="nonzero"/><path stroke-linecap="butt" transform="matrix(0.0582478, -0.00981926, 0.00966584, 0.0591723, 82.066658, 21.543154)" fill-opacity="1" fill="#ffffff" fill-rule="nonzero" stroke-linejoin="miter" d="M -667.559432 91.819143 C -667.547745 95.385881 -668.199373 98.908561 -669.623525 102.237031 C -670.982412 105.576331 -672.951308 108.550345 -675.519553 111.094827 C -678.087798 113.639309 -681.038272 115.658259 -684.41492 117.012355 C -687.736963 118.441528 -691.202795 119.120676 -694.823078 119.114047 C -698.443361 119.107418 -701.946371 118.394087 -705.277504 117.04913 C -708.663242 115.629097 -711.561436 113.695835 -714.146562 111.088362 C -716.742349 108.545135 -718.665458 105.585416 -720.057082 102.251791 C -721.448705 98.918165 -722.145029 95.43586 -722.146055 91.804877 C -722.147081 88.173893 -721.440849 84.726289 -720.071301 81.322743 C -718.712414 77.983443 -716.688914 75.084505 -714.175273 72.464947 C -711.607028 69.920465 -708.667215 67.965761 -705.279906 66.547419 C -701.968524 65.182492 -698.437426 64.514174 -694.817143 64.520803 C -691.196861 64.527432 -687.748455 65.165687 -684.362718 66.58572 C -681.031584 67.930677 -678.078785 69.939015 -675.548264 72.471412 C -672.963138 75.078884 -670.964102 77.985188 -669.58314 81.383059 C -668.256782 84.705855 -667.560458 88.188159 -667.559432 91.819143 Z M -667.559432 91.819143 " stroke="#000000" stroke-width="1" stroke-opacity="1" stroke-miterlimit="4"/><path stroke-linecap="butt" transform="matrix(0.0582478, -0.00981926, 0.00966584, 0.0591723, 82.066658, 21.543154)" fill-opacity="1" fill="#ffffff" fill-rule="nonzero" stroke-linejoin="miter" d="M -590.164221 91.789487 C -590.163195 95.420471 -590.880089 98.93232 -592.238976 102.27162 C -593.597862 105.610921 -595.632024 108.574104 -598.135003 111.129417 C -600.703248 113.673899 -603.643061 115.628603 -607.03037 117.046945 C -610.341752 118.411872 -613.87285 119.08019 -617.493133 119.073561 C -621.124077 119.131178 -624.561821 118.428677 -627.947559 117.008644 C -631.278692 115.663687 -634.231491 113.655349 -636.762013 111.122952 C -639.347139 108.515479 -641.346174 105.609176 -642.672532 102.28638 C -644.053494 98.888509 -644.749819 95.406204 -644.750845 91.775221 C -644.762532 88.208483 -644.110903 84.685803 -642.686751 81.357333 C -641.327864 78.018033 -639.358968 75.044019 -636.790724 72.499537 C -634.222479 69.955055 -631.272004 67.936105 -627.895357 66.582008 C -624.573313 65.152836 -621.107481 64.473687 -617.487198 64.480316 C -613.866916 64.486945 -610.363905 65.200277 -607.032772 66.545234 C -603.647035 67.965267 -600.74884 69.898529 -598.163714 72.506001 C -595.567927 75.049228 -593.644818 78.008947 -592.253195 81.342573 C -590.861571 84.676199 -590.165247 88.158504 -590.164221 91.789487 Z M -590.164221 91.789487 " stroke="#000000" stroke-width="1" stroke-opacity="1" stroke-miterlimit="4"/><path stroke-linecap="butt" transform="matrix(0.0582478, -0.00981926, 0.00966584, 0.0591723, 82.066658, 21.543154)" fill-opacity="1" fill="#000000" fill-rule="nonzero" stroke-linejoin="miter" d="M -676.640206 100.874614 C -676.636583 105.298206 -678.200629 109.065565 -681.267078 112.187521 C -684.398792 115.298647 -688.144411 116.855574 -692.569201 116.847472 C -696.993991 116.83937 -700.695394 115.300939 -703.793281 112.146274 C -706.901829 109.055854 -708.490547 105.293433 -708.49417 100.869841 C -708.508454 96.510494 -706.944408 92.743135 -703.812694 89.632009 C -700.68098 86.520884 -696.935361 84.963957 -692.575836 84.961228 C -688.151046 84.969331 -684.384378 86.518592 -681.27583 89.609011 C -678.177943 92.763677 -676.654491 96.515268 -676.640206 100.874614 Z M -676.640206 100.874614 " stroke="#000000" stroke-width="1" stroke-opacity="1" stroke-miterlimit="4"/><path stroke-linecap="butt" transform="matrix(0.0582478, -0.00981926, 0.00966584, 0.0591723, 82.066658, 21.543154)" fill-opacity="1" fill="#000000" fill-rule="nonzero" stroke-linejoin="miter" d="M -596.972666 100.891962 C -596.969043 105.315554 -598.533088 109.082913 -601.664803 112.194039 C -604.72059 115.25175 -608.531475 116.797847 -612.890999 116.800575 C -617.32645 116.856718 -621.082458 115.243212 -624.191006 112.152792 C -627.299553 109.062372 -628.823006 105.310781 -628.826629 100.887189 C -628.840913 96.527843 -627.276868 92.760484 -624.145154 89.649358 C -621.078705 86.527402 -617.333086 84.970475 -612.908296 84.978577 C -608.483506 84.986679 -604.782102 86.52511 -601.673555 89.61553 C -598.510403 92.781025 -596.98695 96.532616 -596.972666 100.891962 Z M -596.972666 100.891962 " stroke="#000000" stroke-width="1" stroke-opacity="1" stroke-miterlimit="4"/><path stroke-linecap="butt" transform="matrix(0.0582478, -0.00981926, 0.00966584, 0.0591723, 82.066658, 21.543154)" fill-opacity="1" fill="#000000" fill-rule="nonzero" stroke-linejoin="miter" d="M -669.798051 181.689874 C -669.806388 185.781407 -670.784343 189.249935 -672.807844 192.148873 C -674.831345 195.047811 -677.21835 196.500117 -680.034125 196.494961 C -682.849901 196.489805 -685.289939 195.02866 -687.288975 192.122357 C -689.298671 189.280299 -690.256058 185.754673 -690.323648 181.716555 C -690.315311 177.625021 -689.261429 174.103078 -687.313855 171.257555 C -685.290354 168.358617 -682.903349 166.906311 -680.022308 166.922297 C -677.206533 166.927453 -674.821099 168.313522 -672.822063 171.219826 C -670.823027 174.126129 -669.789715 177.59834 -669.798051 181.689874 Z M -669.798051 181.689874 " stroke="#000000" stroke-width="1" stroke-opacity="1" stroke-miterlimit="4"/><path stroke-linecap="butt" transform="matrix(0.0582478, -0.00981926, 0.00966584, 0.0591723, 82.066658, 21.543154)" fill-opacity="1" fill="#000000" fill-rule="nonzero" stroke-linejoin="miter" d="M -622.049739 181.691619 C -621.992811 185.793982 -623.036032 189.25168 -624.994267 192.161448 C -627.017767 195.060386 -629.404772 196.512692 -632.285813 196.496706 C -635.101589 196.49155 -637.476362 195.041236 -639.475397 192.134932 C -641.485094 189.292874 -642.507746 185.756418 -642.499409 181.664884 C -642.501733 177.637596 -641.513117 174.104823 -639.489616 171.205885 C -637.476777 168.371192 -635.089772 166.918886 -632.273996 166.924042 C -629.44756 166.864952 -627.007521 168.326097 -625.008486 171.232401 C -623.00945 174.138705 -622.041403 177.600085 -622.049739 181.691619 Z M -622.049739 181.691619 " stroke="#000000" stroke-width="1" stroke-opacity="1" stroke-miterlimit="4"/><path stroke-linecap="butt" transform="matrix(0.0590443, 0, 0, 0.0599815, 82.066658, 21.543154)" fill-opacity="1" fill="#000000" fill-rule="evenodd" stroke-linejoin="miter" d="M -901.273637 201.881945 C -907.029376 206.896509 -911.461957 213.343805 -914.108274 220.70284 C -924.825857 218.814238 -938.520547 212.49719 -954.398448 204.291541 C -956.912449 206.961633 -958.764871 209.957347 -959.823398 213.343805 C -946.327182 224.935913 -931.772439 232.360073 -916.820749 238.091003 L -916.820749 256.390904 C -908.683324 256.586277 -901.604427 254.893047 -895.584056 251.37634 C -889.497527 247.859633 -885.528051 243.105566 -883.67563 237.11414 C -881.75705 230.92734 -882.484787 224.610292 -885.660367 218.097872 C -888.902106 211.650576 -894.128581 206.245267 -901.273637 201.881945 Z M -901.273637 201.881945 " stroke="#000000" stroke-width="1" stroke-opacity="1" stroke-miterlimit="4"/></svg>