<svg xmlns="http://www.w3.org/2000/svg" xmlns:xlink="http://www.w3.org/1999/xlink" width="100" zoomAndPan="magnify" viewBox="0 0 75 74.999997" height="100" preserveAspectRatio="xMidYMid meet" version="1.0"><defs><clipPath id="10a56c9a75"><path d="M 28 22.5 L 45 22.5 L 45 30 L 28 30 Z M 28 22.5 " clip-rule="nonzero"/></clipPath></defs><path fill="#e9eef2" d="M 302.710938 171.730469 C 302.710938 171.730469 302.710938 47.980469 178.875 47.980469 C 55.039062 47.980469 55.039062 171.730469 55.039062 171.730469 C 55.039062 171.730469 6.882812 226.730469 6.882812 322.980469 C 6.882812 405.480469 137.597656 405.480469 178.875 405.480469 C 220.152344 405.480469 350.867188 405.480469 350.867188 322.980469 C 350.867188 226.730469 302.710938 171.730469 302.710938 171.730469 Z M 302.710938 171.730469 " fill-opacity="1" fill-rule="nonzero"/><path fill="#000000" d="M 48.226562 169.183594 C 44.414062 173.972656 34.574219 187.273438 24.726562 208.355469 C 13.449219 232.507812 0.00390625 272 0.00390625 322.980469 C 0.00390625 344.085938 7.859375 361.851562 23.347656 375.785156 C 35.816406 387 53.390625 395.75 75.589844 401.800781 C 114.316406 412.355469 157.921875 412.355469 178.875 412.355469 C 199.828125 412.355469 243.433594 412.355469 282.160156 401.800781 C 304.355469 395.75 321.933594 387 334.398438 375.785156 C 349.890625 361.851562 357.746094 344.085938 357.746094 322.980469 C 357.746094 272 344.300781 232.507812 333.023438 208.355469 C 323.175781 187.273438 313.335938 173.972656 309.523438 169.183594 C 309.214844 161.859375 307.464844 139.925781 297.621094 116.089844 C 291.78125 101.949219 284.109375 89.667969 274.769531 79.359375 C 279.613281 71.5625 282.070312 63.34375 282.070312 54.855469 C 282.070312 32.109375 263.554688 13.605469 240.792969 13.605469 C 232.652344 13.605469 223.175781 15.976562 214.378906 20.097656 C 207.175781 7.988281 193.960938 -0.144531 178.875 -0.144531 C 163.789062 -0.144531 150.574219 7.988281 143.371094 20.097656 C 134.574219 15.976562 125.097656 13.605469 116.957031 13.605469 C 94.195312 13.605469 75.679688 32.109375 75.679688 54.855469 C 75.679688 63.34375 78.136719 71.5625 82.980469 79.359375 C 73.640625 89.667969 65.96875 101.949219 60.128906 116.089844 C 50.285156 139.925781 48.535156 161.859375 48.226562 169.183594 Z M 240.792969 27.355469 C 255.964844 27.355469 268.3125 39.691406 268.3125 54.855469 C 268.3125 59.800781 267.058594 64.691406 264.585938 69.464844 C 251.886719 58.625 236.804688 50.769531 219.625 46.140625 C 219.964844 44.367188 220.152344 42.675781 220.152344 41.105469 C 220.152344 38.320312 219.871094 35.597656 219.339844 32.960938 C 226.550781 29.449219 234.421875 27.355469 240.792969 27.355469 Z M 178.875 13.605469 C 194.050781 13.605469 206.394531 25.941406 206.394531 41.105469 C 206.394531 51.570312 191.199219 75.289062 178.875 91.742188 C 166.546875 75.289062 151.355469 51.570312 151.355469 41.105469 C 151.355469 25.941406 163.699219 13.605469 178.875 13.605469 Z M 116.957031 27.355469 C 123.328125 27.355469 131.199219 29.449219 138.410156 32.960938 C 137.878906 35.597656 137.597656 38.320312 137.597656 41.105469 C 137.597656 42.675781 137.785156 44.367188 138.125 46.140625 C 120.945312 50.769531 105.863281 58.625 93.164062 69.464844 C 90.6875 64.691406 89.4375 59.800781 89.4375 54.855469 C 89.4375 39.691406 101.785156 27.355469 116.957031 27.355469 Z M 61.921875 171.730469 C 61.921875 171.492188 62.046875 147.492188 72.847656 121.332031 C 86.371094 88.582031 109.800781 67.710938 142.523438 59.203125 C 151.699219 79.75 170.734375 103.820312 173.503906 107.28125 C 174.8125 108.90625 176.785156 109.855469 178.875 109.855469 C 180.960938 109.855469 182.9375 108.90625 184.242188 107.28125 C 187.015625 103.820312 206.046875 79.75 215.222656 59.203125 C 247.804688 67.675781 271.175781 88.410156 284.730469 120.921875 C 295.644531 147.101562 295.828125 171.496094 295.828125 171.730469 C 295.828125 173.390625 296.4375 175 297.527344 176.25 C 297.640625 176.382812 309.300781 189.914062 320.796875 214.6875 C 331.375 237.488281 343.988281 274.789062 343.988281 322.980469 C 343.988281 354.644531 321.96875 376.699219 278.539062 388.535156 C 241.589844 398.605469 199.230469 398.605469 178.875 398.605469 C 158.519531 398.605469 116.160156 398.605469 79.210938 388.535156 C 35.78125 376.699219 13.761719 354.644531 13.761719 322.980469 C 13.761719 274.789062 26.375 237.488281 36.953125 214.6875 C 48.449219 189.914062 60.109375 176.382812 60.21875 176.257812 C 61.316406 175.003906 61.921875 173.394531 61.921875 171.730469 Z M 116.957031 164.855469 C 128.339844 164.855469 137.597656 155.601562 137.597656 144.230469 C 137.597656 132.859375 128.339844 123.605469 116.957031 123.605469 C 105.578125 123.605469 96.320312 132.859375 96.320312 144.230469 C 96.320312 155.601562 105.578125 164.855469 116.957031 164.855469 Z M 116.957031 137.355469 C 120.75 137.355469 123.835938 140.441406 123.835938 144.230469 C 123.835938 148.019531 120.75 151.105469 116.957031 151.105469 C 113.164062 151.105469 110.078125 148.019531 110.078125 144.230469 C 110.078125 140.441406 113.164062 137.355469 116.957031 137.355469 Z M 240.792969 164.855469 C 252.171875 164.855469 261.429688 155.601562 261.429688 144.230469 C 261.429688 132.859375 252.171875 123.605469 240.792969 123.605469 C 229.414062 123.605469 220.152344 132.859375 220.152344 144.230469 C 220.152344 155.601562 229.414062 164.855469 240.792969 164.855469 Z M 240.792969 137.355469 C 244.585938 137.355469 247.671875 140.441406 247.671875 144.230469 C 247.671875 148.019531 244.585938 151.105469 240.792969 151.105469 C 237 151.105469 233.914062 148.019531 233.914062 144.230469 C 233.914062 140.441406 237 137.355469 240.792969 137.355469 Z M 70.101562 226.546875 C 72.371094 237.085938 77.761719 245.984375 86.1875 253.035156 C 92.070312 257.949219 99.347656 261.992188 108.117188 265.214844 C 99.628906 279.390625 89.4375 300.980469 89.4375 322.980469 C 89.4375 339.238281 93.898438 354.128906 101.996094 364.917969 C 111.785156 377.960938 126.472656 384.855469 144.476562 384.855469 C 156.824219 384.855469 165.175781 373.714844 169.296875 351.75 C 171.964844 337.535156 171.996094 323.570312 171.996094 322.980469 L 171.996094 301.34375 C 174.261719 301.992188 176.554688 302.355469 178.875 302.355469 C 181.195312 302.355469 183.488281 301.992188 185.753906 301.34375 L 185.753906 322.980469 C 185.753906 323.570312 185.785156 337.535156 188.453125 351.75 C 192.574219 373.714844 200.925781 384.855469 213.273438 384.855469 C 231.277344 384.855469 245.964844 377.960938 255.753906 364.917969 C 263.851562 354.128906 268.3125 339.238281 268.3125 322.980469 C 268.3125 300.984375 258.121094 279.390625 249.632812 265.21875 C 258.402344 261.996094 265.679688 257.953125 271.5625 253.035156 C 279.988281 245.984375 285.378906 237.085938 287.648438 226.546875 C 301.167969 219.816406 302.710938 210.125 302.710938 206.105469 C 302.710938 189.171875 277.71875 183.808594 258.921875 181.246094 C 245.289062 179.386719 231.828125 178.835938 224.914062 178.675781 C 220.058594 166.957031 205.1875 137.355469 178.875 137.355469 C 152.5625 137.355469 137.691406 166.957031 132.835938 178.675781 C 125.917969 178.835938 112.460938 179.386719 98.828125 181.246094 C 80.03125 183.808594 55.039062 189.171875 55.039062 206.105469 C 55.039062 210.125 56.582031 219.816406 70.101562 226.546875 Z M 86.183594 231.644531 C 92.519531 232.839844 100.125 233.566406 109.273438 233.605469 C 112.464844 235.675781 119.839844 246.339844 125.277344 254.207031 C 125.757812 254.898438 126.242188 255.601562 126.730469 256.304688 C 100.636719 250.382812 90.410156 240.035156 86.183594 231.644531 Z M 158.234375 322.980469 C 158.234375 323.113281 158.207031 336.242188 155.773438 349.214844 C 153.242188 362.71875 148.910156 371.105469 144.476562 371.105469 C 114.042969 371.105469 103.199219 346.246094 103.199219 322.980469 C 103.199219 302.542969 113.847656 281.839844 121.761719 269.277344 C 126.859375 270.496094 132.347656 271.511719 138.234375 272.332031 C 144.492188 280.558594 151.191406 288.285156 158.234375 293.84375 Z M 254.550781 322.980469 C 254.550781 346.246094 243.707031 371.105469 213.273438 371.105469 C 205.1875 371.105469 199.53125 345.742188 199.515625 322.980469 L 199.515625 293.84375 C 206.558594 288.285156 213.257812 280.558594 219.515625 272.335938 C 225.402344 271.511719 230.890625 270.496094 235.988281 269.277344 C 243.902344 281.84375 254.550781 302.546875 254.550781 322.980469 Z M 231.019531 256.304688 C 231.507812 255.601562 231.988281 254.898438 232.46875 254.207031 C 237.910156 246.34375 245.285156 235.675781 248.476562 233.605469 C 257.621094 233.566406 265.230469 232.839844 271.5625 231.644531 C 267.339844 240.035156 257.113281 250.386719 231.019531 256.304688 Z M 100.574219 194.886719 C 118.816406 192.390625 137.410156 192.355469 137.597656 192.355469 C 140.558594 192.355469 143.1875 190.460938 144.125 187.65625 C 144.246094 187.289062 156.929688 151.105469 178.875 151.105469 C 197.300781 151.105469 210.210938 177.496094 213.628906 187.664062 C 214.566406 190.464844 217.195312 192.355469 220.152344 192.355469 C 220.339844 192.355469 238.933594 192.390625 257.175781 194.886719 C 283.113281 198.433594 288.949219 204.324219 288.949219 206.105469 C 288.949219 210.863281 280.324219 219.855469 247.671875 219.855469 C 239.847656 219.855469 233.542969 228.46875 221.152344 246.390625 C 209.523438 263.199219 191.953125 288.605469 178.875 288.605469 C 165.796875 288.605469 148.226562 263.199219 136.597656 246.390625 C 124.207031 228.46875 117.902344 219.855469 110.078125 219.855469 C 77.425781 219.855469 68.800781 210.863281 68.800781 206.105469 C 68.800781 204.324219 74.636719 198.433594 100.574219 194.886719 Z M 100.574219 194.886719 " fill-opacity="1" fill-rule="nonzero"/><g clip-path="url(#10a56c9a75)"><path fill="#ecaaa8" d="M 39.851562 26.117188 C 40 25.40625 40.269531 24.714844 40.734375 24.144531 C 41.449219 23.273438 42.523438 22.726562 43.628906 22.582031 C 43.929688 23.042969 44.1875 23.535156 44.28125 24.089844 C 44.550781 25.695312 44.035156 27.578125 42.550781 28.410156 Z M 33.554688 26.554688 C 33.308594 25.867188 32.945312 25.21875 32.40625 24.722656 C 31.582031 23.957031 30.445312 23.5625 29.328125 23.570312 C 29.09375 24.070312 28.90625 24.59375 28.890625 25.152344 C 28.839844 26.78125 29.605469 28.578125 31.191406 29.195312 Z M 33.554688 26.554688 " fill-opacity="1" fill-rule="evenodd"/></g><path fill="#bc6c6a" d="M 45.316406 41.910156 C 45.328125 41.890625 45.335938 41.867188 45.34375 41.847656 C 45.519531 41.382812 45.511719 40.964844 45.308594 40.640625 C 45.007812 40.167969 44.570312 40.0625 44.183594 40.183594 C 43.824219 40.292969 43.503906 40.613281 43.390625 41.039062 C 43.25 41.566406 43.480469 42.054688 43.9375 42.320312 C 44.03125 42.378906 44.132812 42.421875 44.246094 42.457031 C 44.175781 42.546875 44.101562 42.632812 44.019531 42.71875 C 43.578125 43.207031 43.140625 43.554688 42.617188 43.773438 C 42.132812 43.980469 41.574219 44.066406 40.886719 44.054688 C 40.695312 44.054688 40.539062 44.207031 40.539062 44.398438 C 40.535156 44.585938 40.6875 44.746094 40.878906 44.746094 C 41.675781 44.75 42.316406 44.632812 42.878906 44.390625 C 43.480469 44.128906 43.992188 43.722656 44.496094 43.152344 C 44.6875 42.9375 44.855469 42.722656 44.996094 42.507812 C 45.257812 42.46875 45.539062 42.367188 45.8125 42.191406 C 46.230469 41.917969 46.601562 41.46875 46.753906 40.972656 C 46.902344 40.480469 46.859375 39.941406 46.453125 39.480469 C 46.40625 39.417969 46.316406 39.40625 46.253906 39.457031 C 46.195312 39.507812 46.1875 39.597656 46.234375 39.660156 C 46.527344 40.046875 46.539062 40.46875 46.394531 40.847656 C 46.242188 41.246094 45.921875 41.589844 45.570312 41.789062 C 45.484375 41.839844 45.402344 41.878906 45.316406 41.910156 Z M 44.574219 41.992188 C 44.652344 41.867188 44.714844 41.742188 44.765625 41.621094 C 44.863281 41.371094 44.902344 41.140625 44.792969 40.964844 C 44.675781 40.769531 44.507812 40.707031 44.351562 40.753906 C 44.164062 40.804688 44.003906 40.972656 43.9375 41.195312 C 43.839844 41.535156 44.070312 41.832031 44.417969 41.953125 C 44.46875 41.96875 44.519531 41.984375 44.574219 41.992188 Z M 44.574219 41.992188 " fill-opacity="1" fill-rule="evenodd"/><path fill="#ecaaa8" d="M 37.417969 35.113281 C 37.5625 35.074219 37.710938 35.046875 37.867188 35.03125 C 40.144531 34.796875 41.1875 40.332031 41.445312 42.164062 C 42.042969 43.386719 42.664062 44.257812 43.988281 44.773438 C 45.8125 45.484375 49.042969 44.242188 49.398438 47.332031 C 49.539062 48.550781 49.050781 49.9375 48.539062 50.433594 C 46.453125 52.464844 42.042969 49.242188 39.691406 48.765625 C 39.226562 48.671875 38.753906 48.597656 38.28125 48.558594 C 38.015625 48.546875 37.730469 48.53125 37.425781 48.527344 C 37.121094 48.53125 36.839844 48.546875 36.574219 48.558594 C 36.097656 48.597656 35.625 48.671875 35.160156 48.765625 C 32.8125 49.242188 28.398438 52.464844 26.3125 50.433594 C 25.804688 49.9375 25.316406 48.550781 25.457031 47.332031 C 25.8125 44.242188 29.042969 45.484375 30.867188 44.773438 C 32.1875 44.257812 32.808594 43.386719 33.40625 42.164062 C 33.664062 40.332031 34.691406 34.796875 36.972656 35.03125 C 37.125 35.046875 37.277344 35.074219 37.417969 35.113281 Z M 37.417969 35.113281 " fill-opacity="1" fill-rule="evenodd"/><path fill="#bc6c6a" d="M 48.082031 45.390625 C 48.65625 45.417969 49.035156 44.738281 49.296875 44.78125 C 49.566406 44.824219 50.550781 48.367188 48.734375 50.5 C 48.269531 51.042969 47.460938 51.210938 46.757812 51.027344 C 45.546875 50.710938 45.300781 49.660156 45.300781 48.261719 C 45.300781 47.375 46.25 44.90625 46.699219 44.480469 C 47.132812 44.070312 47.492188 45.355469 48.082031 45.390625 Z M 26.769531 45.390625 C 26.195312 45.417969 25.820312 44.738281 25.554688 44.78125 C 25.285156 44.824219 24.300781 48.367188 26.121094 50.5 C 26.585938 51.042969 27.445312 51.148438 28.097656 51.027344 C 29.253906 50.816406 29.554688 49.660156 29.554688 48.261719 C 29.554688 47.375 28.601562 44.90625 28.152344 44.480469 C 27.722656 44.070312 27.363281 45.355469 26.769531 45.390625 Z M 26.769531 45.390625 " fill-opacity="1" fill-rule="evenodd"/><path fill="#e89a98" d="M 37.523438 27.519531 L 39.082031 27.613281 C 39.082031 27.613281 38.410156 32.753906 40.570312 34.820312 C 42.460938 36.628906 44.808594 43.140625 41.300781 51.074219 C 40.988281 51.777344 38.488281 51.964844 37.625 50.679688 C 36.910156 49.617188 42.464844 36.109375 37.457031 35.960938 C 32.277344 35.8125 37.914062 49.617188 37.203125 50.679688 C 36.339844 51.964844 33.839844 51.777344 33.527344 51.074219 C 30.019531 43.140625 32.453125 36.628906 34.34375 34.820312 C 36.503906 32.753906 35.828125 27.613281 35.828125 27.613281 L 37.386719 27.519531 L 37.386719 27.511719 L 37.457031 27.515625 L 37.523438 27.511719 Z M 37.523438 27.519531 " fill-opacity="1" fill-rule="evenodd"/><path fill="#bc6c6a" d="M 37.570312 50.507812 C 37.691406 50.265625 37.960938 50.105469 38.308594 50.125 C 39.082031 50.167969 39.632812 50.886719 40.34375 51.113281 C 40.617188 51.199219 40.902344 51.238281 41.183594 51.234375 C 40.597656 51.800781 38.417969 51.859375 37.625 50.679688 C 37.597656 50.640625 37.582031 50.582031 37.570312 50.507812 Z M 33.640625 51.234375 C 33.933594 51.242188 34.230469 51.199219 34.507812 51.113281 C 35.222656 50.886719 35.773438 50.167969 36.546875 50.125 C 36.871094 50.109375 37.128906 50.25 37.261719 50.46875 C 37.25 50.5625 37.234375 50.632812 37.203125 50.679688 C 36.410156 51.859375 34.230469 51.800781 33.640625 51.234375 Z M 33.640625 51.234375 " fill-opacity="1" fill-rule="evenodd"/><path fill="#f7dad9" d="M 40.980469 26.804688 C 41.246094 25.796875 41.792969 24.953125 42.808594 24.609375 C 43.042969 25.585938 42.679688 26.707031 41.84375 27.285156 Z M 32.527344 27.390625 C 32.128906 26.425781 31.46875 25.667969 30.414062 25.46875 C 30.316406 26.464844 30.832031 27.527344 31.738281 27.984375 Z M 32.527344 27.390625 " fill-opacity="1" fill-rule="evenodd"/><path fill="#ecaaa8" d="M 30.5 36.019531 C 32.644531 39.5 42.597656 38.773438 44.199219 35.074219 C 45.5 32.074219 44.644531 25.109375 37.632812 24.859375 C 37.460938 24.835938 36.777344 24.855469 36.621094 24.867188 C 36.460938 24.875 35.777344 24.953125 35.613281 24.996094 C 28.703125 26.210938 28.789062 33.242188 30.5 36.019531 Z M 30.5 36.019531 " fill-opacity="1" fill-rule="evenodd"/><path fill="#bc6c6a" d="M 37.035156 31.542969 C 37.40625 31.507812 38.050781 31.535156 38.816406 31.914062 C 40.027344 32.515625 40.863281 34.207031 39.859375 35.109375 C 39.347656 35.570312 38.292969 35.859375 37.335938 35.894531 C 36.378906 35.992188 35.300781 35.851562 34.730469 35.464844 C 33.613281 34.710938 34.207031 32.921875 35.328125 32.15625 C 36.035156 31.675781 36.667969 31.5625 37.035156 31.542969 Z M 37.035156 31.542969 " fill-opacity="1" fill-rule="evenodd"/><path fill="#000000" d="M 36.089844 33.257812 C 36.316406 33.242188 36.519531 33.496094 36.542969 33.824219 C 36.566406 34.15625 36.398438 34.4375 36.167969 34.453125 C 35.941406 34.46875 35.738281 34.214844 35.714844 33.882812 C 35.691406 33.554688 35.859375 33.273438 36.089844 33.257812 Z M 38.253906 33.109375 C 38.480469 33.09375 38.6875 33.347656 38.707031 33.675781 C 38.730469 34.003906 38.5625 34.285156 38.335938 34.300781 C 38.109375 34.316406 37.902344 34.0625 37.882812 33.734375 C 37.859375 33.402344 38.027344 33.125 38.253906 33.109375 Z M 38.253906 33.109375 " fill-opacity="1" fill-rule="evenodd"/><path fill="#000000" d="M 33.183594 30.648438 C 33.503906 30.628906 33.78125 30.871094 33.800781 31.195312 C 33.824219 31.515625 33.582031 31.796875 33.261719 31.816406 C 32.941406 31.839844 32.664062 31.597656 32.640625 31.273438 C 32.617188 30.953125 32.859375 30.671875 33.183594 30.648438 Z M 40.804688 30.121094 C 41.125 30.101562 41.402344 30.34375 41.425781 30.667969 C 41.449219 30.988281 41.203125 31.269531 40.882812 31.289062 C 40.5625 31.3125 40.285156 31.070312 40.261719 30.746094 C 40.242188 30.425781 40.484375 30.144531 40.804688 30.121094 Z M 33.179688 30.757812 C 33.308594 30.75 33.417969 30.847656 33.425781 30.976562 C 33.4375 31.105469 33.339844 31.21875 33.210938 31.226562 C 33.082031 31.234375 32.972656 31.136719 32.960938 31.007812 C 32.953125 30.878906 33.050781 30.769531 33.179688 30.757812 Z M 40.824219 30.230469 C 40.953125 30.222656 41.0625 30.320312 41.070312 30.449219 C 41.082031 30.578125 40.984375 30.6875 40.855469 30.699219 C 40.726562 30.707031 40.613281 30.609375 40.605469 30.480469 C 40.597656 30.351562 40.695312 30.238281 40.824219 30.230469 Z M 40.824219 30.230469 " fill-opacity="1" fill-rule="evenodd"/></svg>